<svg id="Layer_1" data-name="Layer 1" xmlns="http://www.w3.org/2000/svg" xmlns:xlink="http://www.w3.org/1999/xlink" viewBox="0 0 25 25"><defs><style>.cls-1{fill:none;}.cls-2{clip-path:url(#clip-path);}.cls-3{fill:#63c3a6;}</style><clipPath id="clip-path" transform="translate(-22.94 -22.93)"><rect class="cls-1" x="22.93" y="22.93" width="25" height="25"/></clipPath></defs><g class="cls-2"><path class="cls-3" d="M47.85,34.12c-.92-8.6-8.78-11.67-13.78-11.13A12.5,12.5,0,0,0,25,28.58,1,1,0,0,0,25.24,30a1.05,1.05,0,0,0,1.44-.32,10.47,10.47,0,0,1,7.61-4.63c5.3-.55,10.41,2.68,11.49,9.26.79,4.82-3,10.87-9.26,11.49a10.54,10.54,0,0,1-9.68-4.43l2,.44a1,1,0,1,0,.42-2l-4.15-.91a1.08,1.08,0,0,0-1.28.8L23,43.9a1,1,0,0,0,.79,1.23A1.08,1.08,0,0,0,25,44.28l.31-1.44c4.07,5.69,11,5.1,11.44,5.06A12.21,12.21,0,0,0,47.85,34.12Z" transform="translate(-22.94 -22.93)"/><path class="cls-3" d="M36.25,29.54a1.07,1.07,0,0,0-1.06,1.06v4.85a1,1,0,0,0,.31.74L40.35,41a1.18,1.18,0,0,0,1.54.05,1,1,0,0,0,0-1.49L37.31,35V30.61A1.06,1.06,0,0,0,36.25,29.54Z" transform="translate(-22.94 -22.93)"/></g></svg>