<svg id="Layer_1" data-name="Layer 1" xmlns="http://www.w3.org/2000/svg" xmlns:xlink="http://www.w3.org/1999/xlink" viewBox="0 0 25 25"><defs><style>.cls-1{fill:none;}.cls-2{clip-path:url(#clip-path);}.cls-3{fill:#63c3a6;}</style><clipPath id="clip-path" transform="translate(-24.36 -22.93)"><rect class="cls-1" x="24.36" y="22.93" width="25" height="25"/></clipPath></defs><g class="cls-2"><path class="cls-3" d="M48.08,32.81l-1.76-.3a9.35,9.35,0,0,0-.7-1.7l1-1.45a1.55,1.55,0,0,0-.16-2l-1.56-1.55a1.5,1.5,0,0,0-1.09-.46,1.48,1.48,0,0,0-.89.29l-1.46,1A10,10,0,0,0,39.73,26l-.29-1.74a1.56,1.56,0,0,0-1.53-1.29h-2.2a1.55,1.55,0,0,0-1.52,1.29L33.88,26a9.6,9.6,0,0,0-1.69.71l-1.44-1a1.53,1.53,0,0,0-2,.17L27.2,27.4a1.55,1.55,0,0,0-.17,2l1,1.47a9.75,9.75,0,0,0-.7,1.71l-1.73.29a1.55,1.55,0,0,0-1.29,1.53v2.19a1.55,1.55,0,0,0,1.29,1.53l1.77.3a10.2,10.2,0,0,0,.72,1.7l-1,1.43a1.54,1.54,0,0,0,.17,2l1.55,1.56a1.56,1.56,0,0,0,1.1.45,1.5,1.5,0,0,0,.89-.29l1.47-1a9.54,9.54,0,0,0,1.65.68l.29,1.75a1.54,1.54,0,0,0,1.52,1.29H38a1.53,1.53,0,0,0,1.52-1.29l.3-1.75a9.39,9.39,0,0,0,1.7-.71l1.45,1a1.5,1.5,0,0,0,.9.28,1.54,1.54,0,0,0,1.09-.45l1.56-1.56a1.55,1.55,0,0,0,.16-2l-1-1.45a9.23,9.23,0,0,0,.7-1.7l1.76-.29a1.55,1.55,0,0,0,1.29-1.53v-2.2A1.52,1.52,0,0,0,48.08,32.81ZM48,36.53a.14.14,0,0,1-.12.14L45.65,37a.68.68,0,0,0-.56.52,8.39,8.39,0,0,1-.91,2.19.72.72,0,0,0,0,.77l1.29,1.81a.14.14,0,0,1,0,.18l-1.55,1.56a.19.19,0,0,1-.1,0,.11.11,0,0,1-.08,0l-1.81-1.29a.72.72,0,0,0-.77,0,8.25,8.25,0,0,1-2.19.91.71.71,0,0,0-.52.56l-.37,2.2a.12.12,0,0,1-.13.11h-2.2a.13.13,0,0,1-.14-.11l-.36-2.2a.71.71,0,0,0-.52-.56,8.33,8.33,0,0,1-2.14-.88.74.74,0,0,0-.36-.09.66.66,0,0,0-.4.13L30,44.12a.13.13,0,0,1-.08,0,.15.15,0,0,1-.1,0l-1.55-1.55a.14.14,0,0,1,0-.18l1.28-1.8a.7.7,0,0,0,0-.77,8.28,8.28,0,0,1-.92-2.19.73.73,0,0,0-.57-.51l-2.21-.38a.14.14,0,0,1-.11-.14V34.39a.14.14,0,0,1,.11-.14l2.18-.37a.7.7,0,0,0,.57-.52,8.2,8.2,0,0,1,.89-2.19.68.68,0,0,0,0-.76l-1.3-1.83a.15.15,0,0,1,0-.18l1.56-1.56a.16.16,0,0,1,.1,0,.11.11,0,0,1,.08,0l1.8,1.28a.7.7,0,0,0,.77,0,8,8,0,0,1,2.18-.92.74.74,0,0,0,.52-.57l.38-2.21a.13.13,0,0,1,.13-.11h2.2a.13.13,0,0,1,.14.11l.36,2.18a.71.71,0,0,0,.53.57,8.74,8.74,0,0,1,2.24.92.7.7,0,0,0,.76,0l1.81-1.3.07,0a.12.12,0,0,1,.1,0l1.56,1.55a.14.14,0,0,1,0,.18l-1.29,1.81a.72.72,0,0,0,0,.77,8.39,8.39,0,0,1,.91,2.19.7.7,0,0,0,.57.52l2.19.37a.13.13,0,0,1,.11.13v2.2Z" transform="translate(-24.36 -22.93)"/><path class="cls-3" d="M36.86,30a5.4,5.4,0,1,0,5.4,5.39A5.39,5.39,0,0,0,36.86,30Zm0,9.38a4,4,0,1,1,4-4A4,4,0,0,1,36.86,39.42Z" transform="translate(-24.36 -22.93)"/></g></svg>