<svg id="Layer_1" data-name="Layer 1" xmlns="http://www.w3.org/2000/svg" xmlns:xlink="http://www.w3.org/1999/xlink" viewBox="0 0 28.13 28.13"><defs><style>.cls-1{fill:none;}.cls-2{clip-path:url(#clip-path);}.cls-3{fill:#79de79;}</style><clipPath id="clip-path" transform="translate(-129.6 -244.99)"><rect class="cls-1" x="128.67" y="244.06" width="30" height="30"/></clipPath></defs><g class="cls-2"><path class="cls-3" d="M143.67,245a14.07,14.07,0,1,0,14.06,14.07A14.08,14.08,0,0,0,143.67,245Zm0,26.25a12.19,12.19,0,1,1,12.18-12.18A12.2,12.2,0,0,1,143.67,271.24Z" transform="translate(-129.6 -244.99)"/><path class="cls-3" d="M150.53,253.68l-9.38,8.78-4.34-4.06a.94.94,0,0,0-1.33,0,1,1,0,0,0,.05,1.33l5,4.66a.94.94,0,0,0,1.28,0l10-9.38a.92.92,0,0,0,0-1.32A.93.93,0,0,0,150.53,253.68Z" transform="translate(-129.6 -244.99)"/></g></svg>