<?xml version="1.0" encoding="utf-8"?>
<!-- Generator: Adobe Illustrator 24.1.2, SVG Export Plug-In . SVG Version: 6.00 Build 0)  -->
<svg version="1.1" id="Layer_1" xmlns="http://www.w3.org/2000/svg" xmlns:xlink="http://www.w3.org/1999/xlink" x="0px" y="0px"
	 viewBox="0 0 25 25" enable-background="new 0 0 25 25" xml:space="preserve">
<path fill="#1AEAB6" d="M7,13.5C7,12.7,6.3,12,5.5,12S4,12.7,4,13.5S4.7,15,5.5,15S7,14.3,7,13.5z M16,14.5c0-0.3-0.2-0.5-0.5-0.5
	h-7C8.2,14,8,14.2,8,14.5S8.2,15,8.5,15h7C15.8,15,16,14.8,16,14.5z M20,13.5c0-0.8-0.7-1.5-1.5-1.5S17,12.7,17,13.5
	s0.7,1.5,1.5,1.5S20,14.3,20,13.5z M2.7,7H0.5C0.2,7,0,7.2,0,7.5V8c0,0.8,0.9,1,1.6,1L2.7,7z M22,10.2c-0.8-1.4-1.7-3.2-2.7-4.8
	c-0.7-1.4-1.3-2-2.7-2.2c-1.4-0.3-2.7-0.3-4.6-0.3s-3.2,0-4.6,0.3C6,3.4,5.5,4,4.7,5.4C3.7,7,2.8,8.7,2,10.2c-0.7,1.3-1,2.4-1,3.8
	c0,1.3,0.4,2.4,1,3.8V20c0,0.6,0.4,1,1,1h1.5c0.6,0,1-0.4,1-1v-1h13v1c0,0.6,0.4,1,1,1H21c0.6,0,1-0.4,1-1v-2.2c0.6-1.4,1-2.5,1-3.8
	C23,12.6,22.7,11.4,22,10.2z M6.4,6.4C7,5.3,7.2,5.2,7.8,5.1C9,4.9,10.2,4.8,12,4.8s3,0.1,4.2,0.3c0.5,0.1,0.7,0.1,1.4,1.2
	C18,7,18.4,7.7,18.8,8.4C17.4,8.7,14.8,9,12,9C9,9,6.5,8.7,5.2,8.4C5.6,7.8,6,7.1,6.4,6.4z M18,17H6c-1.7,0-3-1.4-3-3
	s0.5-2.4,1.2-3.7c1,0.2,4,0.7,7.8,0.7c3.5,0,6.6-0.5,7.8-0.7c0.7,1.2,1.2,2,1.2,3.6C21,15.6,19.6,17,18,17z M23.5,7
	C23.8,7,24,7.2,24,7.5V8c0,0.8-0.9,1-1.6,1l-1.1-2H23.5z"/>
</svg>
