<?xml version="1.0" encoding="utf-8"?>
<!-- Generator: Adobe Illustrator 24.1.2, SVG Export Plug-In . SVG Version: 6.00 Build 0)  -->
<svg version="1.1" id="Layer_1" xmlns="http://www.w3.org/2000/svg" xmlns:xlink="http://www.w3.org/1999/xlink" x="0px" y="0px"
	 viewBox="0 0 25 23.35" enable-background="new 0 0 25 23.35" xml:space="preserve">
<g>
	<g>
		<g>
			<path fill="#1AEAB6" d="M21.53,9.72c-0.33,0.44-0.72,0.84-1.15,1.19c1.86,1.18,3,3.23,3,5.44c0,0.74-1.09,1.25-1.73,1.49
				c-0.57,0.2-1.15,0.36-1.75,0.46c0,0.27,0,0.55,0,0.83s-0.03,0.56-0.08,0.83c0.8-0.12,1.59-0.32,2.36-0.59
				c2.32-0.85,2.8-2.11,2.8-3C24.99,13.72,23.7,11.24,21.53,9.72z"/>
			<path fill="#1AEAB6" d="M16.92,0c-1.03,0-2.02,0.42-2.75,1.15c0.3,0.39,0.57,0.82,0.8,1.26c0.48-0.62,1.22-0.99,2-1
				c1.63,0,3,1.71,3,3.8s-1.33,3.8-3,3.8c-0.49,0-0.96-0.15-1.36-0.43c-0.13,0.49-0.31,0.97-0.54,1.43c0.57,0.33,1.21,0.5,1.87,0.5
				c2.49,0,4.41-2.41,4.41-5.26S19.41,0,16.92,0z"/>
			<path fill="#1AEAB6" d="M14.14,11.47c-0.32,0.42-0.67,0.8-1.07,1.14c2.3,1.37,3.71,3.84,3.71,6.52c0,0.93-1.31,1.56-2.09,1.84
				c-1.78,0.58-3.63,0.85-5.5,0.82c-1.86,0.03-3.72-0.25-5.49-0.82c-0.78-0.28-2.09-0.91-2.09-1.84c0-2.68,1.41-5.15,3.71-6.52
				c-0.41-0.34-0.79-0.72-1.12-1.14c-2.58,1.69-4.14,4.57-4.15,7.66c0,1,0.54,2.36,3.11,3.3c1.93,0.64,3.96,0.95,6,0.92
				c2.04,0.03,4.07-0.28,6-0.92c2.57-0.94,3.11-2.32,3.11-3.3C18.27,16.04,16.72,13.17,14.14,11.47z"/>
			<path fill="#1AEAB6" d="M9.14,12.37c2.89,0,5.1-2.79,5.1-6.08s-2.17-6.05-5.1-6.05S4.07,3,4.07,6.29S6.26,12.37,9.14,12.37z
				 M9.14,1.77c2,0,3.55,2,3.55,4.52s-1.62,4.52-3.55,4.52s-3.54-2-3.54-4.52S7.19,1.77,9.14,1.77z"/>
		</g>
	</g>
</g>
</svg>
