<svg id="Layer_1" data-name="Layer 1" xmlns="http://www.w3.org/2000/svg" xmlns:xlink="http://www.w3.org/1999/xlink" viewBox="0 0 25 23.35"><defs><style>.cls-1{fill:none;}.cls-2{clip-path:url(#clip-path);}.cls-3{fill:#63c3a6;}</style><clipPath id="clip-path" transform="translate(-22.93 -23.76)"><rect class="cls-1" x="22.93" y="22.93" width="25" height="25"/></clipPath></defs><g class="cls-2"><path class="cls-3" d="M44.46,33.48a6.49,6.49,0,0,1-1.15,1.19,6.45,6.45,0,0,1,3,5.44c0,.74-1.09,1.25-1.73,1.49a10.56,10.56,0,0,1-1.75.46c0,.27,0,.55,0,.83a4.36,4.36,0,0,1-.08.83,12.33,12.33,0,0,0,2.36-.59c2.32-.85,2.8-2.11,2.8-3A8.06,8.06,0,0,0,44.46,33.48Z" transform="translate(-22.93 -23.76)"/><path class="cls-3" d="M39.85,23.76a3.9,3.9,0,0,0-2.75,1.15,8.15,8.15,0,0,1,.8,1.26,2.58,2.58,0,0,1,2-1c1.63,0,3,1.71,3,3.8s-1.33,3.8-3,3.8a2.38,2.38,0,0,1-1.36-.43A7.93,7.93,0,0,1,38,33.77a3.74,3.74,0,0,0,1.87.5c2.49,0,4.41-2.41,4.41-5.26S42.34,23.76,39.85,23.76Z" transform="translate(-22.93 -23.76)"/><path class="cls-3" d="M37.07,35.23A7.58,7.58,0,0,1,36,36.37a7.58,7.58,0,0,1,3.71,6.52c0,.93-1.31,1.56-2.09,1.84a16.87,16.87,0,0,1-5.5.82,16.85,16.85,0,0,1-5.49-.82c-.78-.28-2.09-.91-2.09-1.84a7.58,7.58,0,0,1,3.71-6.52,7.13,7.13,0,0,1-1.12-1.14,9.18,9.18,0,0,0-4.15,7.66c0,1,.54,2.36,3.11,3.3a18.16,18.16,0,0,0,6,.92,18.18,18.18,0,0,0,6-.92c2.57-.94,3.11-2.32,3.11-3.3A9.18,9.18,0,0,0,37.07,35.23Z" transform="translate(-22.93 -23.76)"/><path class="cls-3" d="M32.07,36.13c2.89,0,5.1-2.79,5.1-6.08S35,24,32.07,24,27,26.76,27,30.05,29.19,36.13,32.07,36.13Zm0-10.6c2,0,3.55,2,3.55,4.52S34,34.57,32.07,34.57s-3.54-2-3.54-4.52S30.12,25.53,32.07,25.53Z" transform="translate(-22.93 -23.76)"/></g></svg>