<?xml version="1.0" encoding="utf-8"?>
<!-- Generator: Adobe Illustrator 24.1.2, SVG Export Plug-In . SVG Version: 6.00 Build 0)  -->
<svg version="1.1" id="Layer_1" xmlns="http://www.w3.org/2000/svg" xmlns:xlink="http://www.w3.org/1999/xlink" x="0px" y="0px"
	 viewBox="0 0 468 156.7" style="enable-background:new 0 0 468 156.7;" xml:space="preserve">
<style type="text/css">
	.st0{fill:none;stroke:#FFFFFF;stroke-width:17;stroke-miterlimit:10;}
	.st1{fill:#FFFFFF;}
</style>
<path class="st0" d="M11.9,84.9c0-40.6,32.9-73.6,73.6-73.6"/>
<line class="st0" x1="65" y1="82.9" x2="131.5" y2="82.9"/>
<line class="st0" x1="85.4" y1="154" x2="85.4" y2="63.2"/>
<g>
	<path class="st1" d="M307.3,118.8h-65.9c0.6,4.7,2.1,8.8,4.6,12.2c2.5,3.4,5.5,6,9.1,7.7c3.5,1.8,7.2,2.6,10.9,2.6
		c5.5,0,10-1.1,13.6-3.1c3.5-2.1,6-4.9,7.4-8.4h18.6c-2.5,7.6-6.9,13.8-13.3,18.7c-6.4,4.9-14.1,7.3-23.3,7.3
		c-6,0-11.6-1.3-16.8-3.8s-9.3-5.9-12.1-10v12.4H224v-12.4c-3.3,4.1-7.4,7.4-12.4,10c-4.9,2.6-10.4,3.8-16.4,3.8
		c-7.2,0-13.8-1.8-19.7-5.5c-5.9-3.6-10.6-8.8-14.1-15.3c-3.4-6.6-5.2-14-5.2-22.3c0-8.3,1.7-15.7,5.2-22.1
		c3.4-6.4,8.2-11.4,14.3-14.9c6.1-3.5,12.9-5.3,20.4-5.3c12,0,21.3,4.3,27.9,13.1V71.7h16.1v11.7c3.9-4.6,8.2-7.9,12.9-10
		s10.1-3.1,16.1-3.1c7.5,0,14.2,1.7,20.1,5.2c5.9,3.4,10.5,8.3,13.8,14.4s5,13.1,5,20.8C307.9,113.6,307.7,116.3,307.3,118.8z
		 M211.1,137.6c3.8-2.2,6.9-5.4,9.2-9.7c2.4-4.3,3.5-9.2,3.5-14.9c0-5.7-1.2-10.7-3.5-14.8s-5.4-7.4-9.2-9.6
		c-3.8-2.2-7.9-3.3-12.3-3.3c-4.4,0-8.5,1.1-12.3,3.2c-3.8,2.2-6.9,5.3-9.2,9.4c-2.4,4.2-3.5,9.1-3.5,14.8s1.2,10.7,3.5,15
		c2.4,4.3,5.4,7.6,9.3,9.8s7.9,3.4,12.2,3.4C203.2,140.9,207.3,139.8,211.1,137.6z M290.2,106.5c-0.1-6.5-2.4-11.8-7-15.8
		c-4.5-4-10.2-6-17-6c-6.2,0-11.6,2-16.3,6s-7.5,9.3-8.5,15.8H290.2z"/>
	<path class="st1" d="M448.3,74.4c5.1,2.7,9.2,6.7,12.1,12c3,5.3,4.4,11.7,4.4,19.2v48.8h-17v-46.2c0-7.4-1.9-13.1-5.5-17
		c-3.7-3.9-8.8-5.9-15.1-5.9s-11.5,2-15.2,5.9c-3.8,3.9-5.6,9.6-5.6,17v46.2h-17v-46.2c0-7.4-1.9-13.1-5.5-17
		c-3.7-3.9-8.8-5.9-15.1-5.9s-11.5,2-15.2,5.9c-3.8,3.9-5.6,9.6-5.6,17v46.2h-17.1V71.7h17.1v9.4c2.8-3.4,6.4-6.1,10.6-7.9
		c4.3-1.9,8.9-2.8,13.8-2.8c6.6,0,12.5,1.4,17.7,4.2c5.2,2.8,9.2,6.8,12,12.2c2.5-5,6.4-9,11.7-11.9c5.3-2.9,11-4.4,17.1-4.4
		C437.4,70.4,443.2,71.7,448.3,74.4z"/>
</g>
</svg>
