<?xml version="1.0" encoding="utf-8"?>
<!-- Generator: Adobe Illustrator 24.1.2, SVG Export Plug-In . SVG Version: 6.00 Build 0)  -->
<svg version="1.1" id="Layer_1" xmlns="http://www.w3.org/2000/svg" xmlns:xlink="http://www.w3.org/1999/xlink" x="0px" y="0px"
	 viewBox="0 0 21.88 17.19" enable-background="new 0 0 21.88 17.19" xml:space="preserve">
<path fill="#1AEAB6" d="M21.09,1.56h-3.91v-1.4c0-0.1-0.09-0.19-0.19-0.19h-1.37c-0.1,0-0.19,0.09-0.19,0.19v1.4h-3.62v-1.4
	c-0.01-0.1-0.09-0.18-0.19-0.19h-1.37c-0.11,0-0.19,0.08-0.2,0.19v1.4H6.44v-1.4c-0.01-0.1-0.09-0.18-0.19-0.19H4.88
	c-0.11,0-0.19,0.08-0.2,0.19v1.4h-3.9C0.35,1.55,0.01,1.89,0,2.32c0,0.01,0,0.01,0,0.02v14.07c-0.01,0.43,0.33,0.77,0.76,0.78
	c0.01,0,0.01,0,0.02,0h20.31c0.43,0,0.78-0.35,0.78-0.78V2.34C21.87,1.91,21.52,1.56,21.09,1.56z M20.09,15.43H1.75V3.32h2.93v1.37
	c0.01,0.11,0.09,0.19,0.2,0.19h1.37c0.1-0.01,0.18-0.09,0.19-0.19V3.32h3.61v1.37c0.01,0.11,0.09,0.19,0.2,0.19h1.37
	c0.1-0.01,0.18-0.09,0.19-0.19V3.32h3.62v1.37c0,0.1,0.09,0.19,0.19,0.19h1.37c0.1,0,0.19-0.09,0.19-0.19V3.32h2.93L20.09,15.43z
	 M8.59,8.16H4.1c-0.11,0-0.2,0.09-0.2,0.2l0,0v1.17c0,0.1,0.08,0.19,0.19,0.19c0,0,0.01,0,0.01,0h4.49c0.1,0.01,0.18-0.07,0.19-0.17
	c0-0.01,0-0.01,0-0.02V8.4c0.03-0.1-0.03-0.21-0.13-0.23C8.63,8.16,8.61,8.16,8.59,8.16z M8.59,11.48H4.1c-0.11,0-0.2,0.09-0.2,0.2
	l0,0v1.17c0,0.11,0.09,0.2,0.2,0.2h0h4.49c0.1,0,0.19-0.08,0.19-0.19c0,0,0-0.01,0-0.01v-1.13c0.01-0.1-0.07-0.19-0.18-0.2
	c0,0-0.01,0-0.01,0V11.48z M16.11,7.16l-2.53,3.51L12.3,8.92c-0.07-0.1-0.19-0.17-0.32-0.17h-1.34c-0.11,0-0.2,0.1-0.19,0.21
	c0,0.04,0.01,0.07,0.03,0.1l2.79,3.87c0.03,0.05,0.08,0.09,0.14,0.12c0.06,0.01,0.11,0.01,0.17,0c0.06,0.01,0.12,0.01,0.18,0
	c0.05-0.03,0.1-0.07,0.14-0.12l4-5.59c0.06-0.09,0.04-0.22-0.06-0.28c-0.03-0.02-0.07-0.03-0.1-0.03h-1.31
	C16.31,7.02,16.19,7.07,16.11,7.16z"/>
</svg>
