<svg id="Layer_1" data-name="Layer 1" xmlns="http://www.w3.org/2000/svg" viewBox="0 0 21.88 17.19"><defs><style>.cls-1{fill:#7b7b7b;}</style></defs><path class="cls-1" d="M45.59,28.4H41.68V27a.19.19,0,0,0-.19-.19H40.12a.19.19,0,0,0-.19.19V28.4H36.31V27a.2.2,0,0,0-.19-.19H34.75a.2.2,0,0,0-.2.19V28.4H30.94V27a.2.2,0,0,0-.19-.19H29.38a.2.2,0,0,0-.2.19V28.4h-3.9a.77.77,0,0,0-.78.78V43.25a.77.77,0,0,0,.78.78H45.59a.78.78,0,0,0,.78-.78V29.18A.78.78,0,0,0,45.59,28.4Zm-1,13.87H26.25V30.16h2.93v1.37a.2.2,0,0,0,.2.19h1.37a.2.2,0,0,0,.19-.19V30.16h3.61v1.37a.2.2,0,0,0,.2.19h1.37a.2.2,0,0,0,.19-.19V30.16h3.62v1.37a.19.19,0,0,0,.19.19h1.37a.19.19,0,0,0,.19-.19V30.16h2.93ZM33.09,35H28.6a.2.2,0,0,0-.2.2v1.17a.19.19,0,0,0,.2.19h4.49a.18.18,0,0,0,.19-.19V35.24A.19.19,0,0,0,33.09,35Zm0,3.32H28.6a.2.2,0,0,0-.2.2v1.17a.2.2,0,0,0,.2.2h4.49a.19.19,0,0,0,.19-.2V38.56A.19.19,0,0,0,33.09,38.36ZM40.61,34l-2.53,3.51L36.8,35.76a.4.4,0,0,0-.32-.17H35.14a.2.2,0,0,0-.16.31l2.79,3.87a.33.33,0,0,0,.14.12.47.47,0,0,0,.17,0,.58.58,0,0,0,.18,0,.53.53,0,0,0,.14-.12l4-5.59a.2.2,0,0,0-.16-.31H40.93A.4.4,0,0,0,40.61,34Z" transform="translate(-24.5 -26.84)"/></svg>