<svg id="Layer_1" data-name="Layer 1" xmlns="http://www.w3.org/2000/svg" xmlns:xlink="http://www.w3.org/1999/xlink" viewBox="0 0 28 28"><defs><style>.cls-1{fill:none;}.cls-2{clip-path:url(#clip-path);}.cls-3{fill:#fafa78;}</style><clipPath id="clip-path" transform="translate(-153.33 -171.22)"><rect class="cls-1" x="151.33" y="169.22" width="32" height="32"/></clipPath></defs><g class="cls-2"><path class="cls-3" d="M160.33,187.22a2,2,0,1,0-2-2A2,2,0,0,0,160.33,187.22Z" transform="translate(-153.33 -171.22)"/><path class="cls-3" d="M174.33,187.22a2,2,0,1,0-2-2A2,2,0,0,0,174.33,187.22Z" transform="translate(-153.33 -171.22)"/><path class="cls-3" d="M167.33,187.22a2,2,0,1,0-2-2A2,2,0,0,0,167.33,187.22Z" transform="translate(-153.33 -171.22)"/><path class="cls-3" d="M167.33,199.22a14,14,0,1,1,9.9-4.1A14,14,0,0,1,167.33,199.22Zm0-26a12,12,0,1,0,8.48,3.52A12,12,0,0,0,167.33,173.22Z" transform="translate(-153.33 -171.22)"/></g></svg>