<?xml version="1.0" encoding="utf-8"?>
<!-- Generator: Adobe Illustrator 24.1.2, SVG Export Plug-In . SVG Version: 6.00 Build 0)  -->
<svg version="1.1" id="Layer_1" xmlns="http://www.w3.org/2000/svg" xmlns:xlink="http://www.w3.org/1999/xlink" x="0px" y="0px"
	 viewBox="0 0 25 25" enable-background="new 0 0 25 25" xml:space="preserve">
<g>
	<defs>
		<rect id="SVGID_1_" x="-0.01" y="0" width="25" height="25"/>
	</defs>
	<clipPath id="SVGID_2_">
		<use xlink:href="#SVGID_1_"  overflow="visible"/>
	</clipPath>
	<g clip-path="url(#SVGID_2_)">
		<path fill="#1AEAB6" d="M24.91,11.19c-0.92-8.6-8.78-11.67-13.78-11.13C7.42,0.48,4.1,2.53,2.06,5.65
			c-0.33,0.44-0.23,1.07,0.21,1.4C2.28,7.06,2.29,7.06,2.3,7.07c0.49,0.31,1.13,0.16,1.44-0.32c1.72-2.6,4.51-4.3,7.61-4.63
			c5.3-0.55,10.41,2.68,11.49,9.26c0.79,4.82-3,10.87-9.26,11.49c-3.79,0.38-7.49-1.31-9.68-4.43l2,0.44
			c0.55,0.12,1.09-0.24,1.21-0.79c0.12-0.55-0.24-1.09-0.79-1.21l-4.15-0.91c-0.57-0.13-1.14,0.23-1.28,0.8l-0.83,4.2
			c-0.14,0.54,0.19,1.08,0.72,1.22c0.02,0.01,0.04,0.01,0.07,0.01c0.56,0.08,1.09-0.29,1.21-0.85l0.31-1.44
			c4.07,5.69,11,5.1,11.44,5.06c6.72-0.55,11.72-6.45,11.17-13.17C24.96,11.59,24.94,11.39,24.91,11.19z"/>
		<path fill="#1AEAB6" d="M13.31,6.61c-0.58,0.01-1.05,0.48-1.06,1.06v4.85c0,0.28,0.11,0.55,0.31,0.74l4.85,4.81
			c0.43,0.4,1.09,0.42,1.54,0.05c0.41-0.37,0.45-1,0.08-1.41c-0.02-0.03-0.05-0.05-0.08-0.08l-4.58-4.56V7.68
			c0.01-0.59-0.46-1.06-1.05-1.07C13.32,6.61,13.31,6.61,13.31,6.61z"/>
	</g>
</g>
</svg>
