<?xml version="1.0" encoding="utf-8"?>
<!-- Generator: Adobe Illustrator 24.1.2, SVG Export Plug-In . SVG Version: 6.00 Build 0)  -->
<svg version="1.1" id="Layer_1" xmlns="http://www.w3.org/2000/svg" xmlns:xlink="http://www.w3.org/1999/xlink" x="0px" y="0px"
	 viewBox="0 0 25 25" enable-background="new 0 0 25 25" xml:space="preserve">
<path fill="#1AEAB6" d="M19.28,11.77c3.08,0,5.55,2.47,5.55,5.55s-2.47,5.55-5.55,5.55s-5.55-2.47-5.55-5.55S16.2,11.77,19.28,11.77
	z M12.75,20.4c-0.12,0-0.12,0-0.25,0c-5.06,0-9.5-3.82-12.21-8.02c-0.12-0.12-0.12-0.37-0.12-0.62c0-0.25,0-0.49,0.12-0.62
	C3,6.96,7.44,3.13,12.5,3.13s9.62,3.82,12.21,8.02c0.12,0.12,0.12,0.37,0.12,0.62c0,0.25-0.12,0.37-0.12,0.62
	c-0.74-0.74-1.6-1.36-2.59-1.85c-2.34-3.08-5.67-5.55-9.5-5.55c-4.32,0-8.02,3.21-10.36,6.78c2.22,3.45,5.92,6.54,9.99,6.78
	C12.25,19.17,12.38,19.78,12.75,20.4z M16.45,17.93l1.73,1.6c0.12,0.12,0.25,0.12,0.37,0.12c0.12,0,0.37-0.12,0.49-0.25L22,16.08
	c0.12-0.12,0.12-0.25,0.12-0.37c0-0.37-0.25-0.62-0.62-0.62c-0.12,0-0.37,0.12-0.49,0.25l-2.34,2.84l-1.36-1.23
	c-0.12-0.12-0.25-0.12-0.37-0.12c-0.37,0-0.62,0.25-0.62,0.62C16.32,17.56,16.32,17.81,16.45,17.93z M12.01,16.7
	c-2.47-0.25-4.44-2.34-4.44-4.93c0-2.71,2.22-4.93,4.93-4.93c2.22,0,4.07,1.48,4.69,3.45c-0.62,0.12-1.23,0.49-1.73,0.74
	c-0.25-1.36-1.48-2.47-2.96-2.47c-1.73,0-3.08,1.36-3.08,3.08s1.36,3.08,2.96,3.08C12.25,15.47,12.13,16.08,12.01,16.7z"/>
</svg>
