<?xml version="1.0" encoding="utf-8"?>
<!-- Generator: Adobe Illustrator 24.1.2, SVG Export Plug-In . SVG Version: 6.00 Build 0)  -->
<svg version="1.1" id="Layer_1" xmlns="http://www.w3.org/2000/svg" xmlns:xlink="http://www.w3.org/1999/xlink" x="0px" y="0px"
	 viewBox="0 0 25 25" style="enable-background:new 0 0 24 24;" xml:space="preserve">
<style type="text/css">
	.st0{fill:#7B7B7B;}
</style>
<path class="st0" d="M17.5,11c2.5,0,4.5,2,4.5,4.5S20,20,17.5,20S13,18,13,15.5S15,11,17.5,11z M12.2,18c-0.1,0-0.1,0-0.2,0
	c-4.1,0-7.7-3.1-9.9-6.5C2,11.4,2,11.2,2,11s0-0.4,0.1-0.5C4.3,7.1,7.9,4,12,4c4.1,0,7.8,3.1,9.9,6.5C22,10.6,22,10.8,22,11
	c0,0.2-0.1,0.3-0.1,0.5c-0.6-0.6-1.3-1.1-2.1-1.5c-1.9-2.5-4.6-4.5-7.7-4.5c-3.5,0-6.5,2.6-8.4,5.5c1.8,2.8,4.8,5.3,8.1,5.5
	C11.8,17,11.9,17.5,12.2,18z M15.2,16l1.4,1.3c0.1,0.1,0.2,0.1,0.3,0.1c0.1,0,0.3-0.1,0.4-0.2l2.4-2.7c0.1-0.1,0.1-0.2,0.1-0.3
	c0-0.3-0.2-0.5-0.5-0.5c-0.1,0-0.3,0.1-0.4,0.2L17,16.2l-1.1-1c-0.1-0.1-0.2-0.1-0.3-0.1c-0.3,0-0.5,0.2-0.5,0.5
	C15.1,15.7,15.1,15.9,15.2,16z M11.6,15c-2-0.2-3.6-1.9-3.6-4c0-2.2,1.8-4,4-4c1.8,0,3.3,1.2,3.8,2.8c-0.5,0.1-1,0.4-1.4,0.6
	c-0.2-1.1-1.2-2-2.4-2c-1.4,0-2.5,1.1-2.5,2.5c0,1.4,1.1,2.5,2.4,2.5C11.8,14,11.7,14.5,11.6,15z"/>
</svg>
