<svg id="Layer_1" data-name="Layer 1" xmlns="http://www.w3.org/2000/svg" xmlns:xlink="http://www.w3.org/1999/xlink" viewBox="0 0 28 28"><defs><style>.cls-1{fill:none;}.cls-2{clip-path:url(#clip-path);}.cls-3{fill:#ff7d7d;}</style><clipPath id="clip-path" transform="translate(-129.67 -245.06)"><rect class="cls-1" x="127.67" y="243.06" width="32" height="32"/></clipPath></defs><g class="cls-2"><path class="cls-3" d="M143.67,245.06a14,14,0,1,0,9.9,4.1A14,14,0,0,0,143.67,245.06Zm0,26a12,12,0,1,1,8.48-3.52A12,12,0,0,1,143.67,271.06Z" transform="translate(-129.67 -245.06)"/><path class="cls-3" d="M144.67,251.06h-2v11h2Z" transform="translate(-129.67 -245.06)"/><path class="cls-3" d="M143.67,265.06a1.48,1.48,0,0,0-.84.25,1.5,1.5,0,0,0-.55.67,1.53,1.53,0,0,0-.08.87,1.45,1.45,0,0,0,.41.77,1.49,1.49,0,0,0,.76.41,1.51,1.51,0,0,0,1.54-.64,1.48,1.48,0,0,0,.26-.83,1.5,1.5,0,0,0-.44-1.06A1.47,1.47,0,0,0,143.67,265.06Z" transform="translate(-129.67 -245.06)"/></g></svg>