<?xml version="1.0" encoding="utf-8"?>
<!-- Generator: Adobe Illustrator 24.1.2, SVG Export Plug-In . SVG Version: 6.00 Build 0)  -->
<svg version="1.1" id="Layer_1" xmlns="http://www.w3.org/2000/svg" xmlns:xlink="http://www.w3.org/1999/xlink" x="0px" y="0px"
	 viewBox="0 0 20.83 20.83" enable-background="new 0 0 20.83 20.83" xml:space="preserve">
<path fill="#1AEAB6" d="M3.65,3.39c-0.01-1,0.8-1.81,1.8-1.82c0.02,0,0.05,0,0.07,0h12c1.01,0,1.82,0.81,1.82,1.82v12
	c0.01,1.01-0.8,1.84-1.81,1.85c-0.03,0-0.05,0-0.08,0h-5.28c-0.18,0.55-0.42,1.07-0.73,1.56h6c1.87,0,3.38-1.51,3.38-3.38
	c0,0,0,0,0,0v-12c0.01-1.87-1.5-3.38-3.37-3.39c0,0-0.01,0-0.01,0H5.52c-1.87,0-3.39,1.52-3.39,3.39v6C2.62,9.11,3.15,8.86,3.7,8.68
	L3.65,3.39z"/>
<path fill="#1AEAB6" d="M11.98,3.91c0-0.43-0.35-0.78-0.78-0.78c-0.43,0-0.78,0.35-0.78,0.78l0,0v6.25c0,0.43,0.35,0.78,0.78,0.78
	h4.69c0.43,0,0.78-0.35,0.78-0.78c0-0.43-0.35-0.78-0.78-0.78h-3.91V3.91z"/>
<path fill="#1AEAB6" d="M11.46,15.11c0,3.16-2.57,5.73-5.73,5.73S0,18.27,0,15.11c0-3.16,2.57-5.73,5.73-5.73c0,0,0,0,0,0
	C8.89,9.39,11.45,11.95,11.46,15.11z M8.18,13.18c-0.19-0.2-0.52-0.21-0.72-0.02c-0.01,0.01-0.01,0.01-0.02,0.02l-2.75,2.75L3.75,15
	c-0.2-0.2-0.53-0.2-0.73,0c-0.2,0.19-0.21,0.52-0.02,0.72c0.01,0.01,0.01,0.01,0.02,0.02l1.3,1.3c0.21,0.2,0.53,0.2,0.74,0
	l3.12-3.13C8.38,13.71,8.38,13.38,8.18,13.18z"/>
</svg>
