<svg id="Layer_1" data-name="Layer 1" xmlns="http://www.w3.org/2000/svg" viewBox="0 0 20.83 20.83"><defs><style>.cls-1{fill:#7b7b7b;}</style></defs><path class="cls-1" d="M27.13,30.15A1.81,1.81,0,0,1,29,28.33h12a1.82,1.82,0,0,1,1.82,1.82v12A1.83,1.83,0,0,1,40.93,44H35.65a7,7,0,0,1-.73,1.56h6a3.38,3.38,0,0,0,3.38-3.38v-12a3.38,3.38,0,0,0-3.38-3.39H29a3.39,3.39,0,0,0-3.39,3.39v6a6.84,6.84,0,0,1,1.57-.74Z" transform="translate(-23.48 -26.76)"/><path class="cls-1" d="M35.46,30.67a.78.78,0,1,0-1.56,0v6.25a.78.78,0,0,0,.78.78h4.69a.78.78,0,0,0,0-1.56H35.46Z" transform="translate(-23.48 -26.76)"/><path class="cls-1" d="M34.94,41.87a5.73,5.73,0,1,1-5.73-5.73A5.74,5.74,0,0,1,34.94,41.87Zm-3.28-1.93a.51.51,0,0,0-.74,0l-2.75,2.75-.94-.93a.52.52,0,0,0-.73,0,.51.51,0,0,0,0,.74l1.3,1.3a.53.53,0,0,0,.74,0l3.12-3.13A.52.52,0,0,0,31.66,39.94Z" transform="translate(-23.48 -26.76)"/></svg>