<?xml version="1.0" encoding="utf-8"?>
<!-- Generator: Adobe Illustrator 24.1.2, SVG Export Plug-In . SVG Version: 6.00 Build 0)  -->
<svg version="1.1" id="Layer_1" xmlns="http://www.w3.org/2000/svg" xmlns:xlink="http://www.w3.org/1999/xlink" x="0px" y="0px"
	 viewBox="0 0 327.46 352.83" enable-background="new 0 0 327.46 352.83" xml:space="preserve">
<path fill="#FFFFFF" d="M141.29,191.61c-1.94,0-3.81,0.77-5.18,2.15c-1.37,1.37-2.15,3.24-2.15,5.18v146.56
	c0,1.94,0.77,3.81,2.15,5.18c1.37,1.37,3.24,2.15,5.18,2.15h146.56c1.94,0,3.81-0.77,5.18-2.15c1.37-1.38,2.15-3.24,2.15-5.18
	V198.94c0-1.94-0.77-3.81-2.15-5.18c-1.37-1.38-3.24-2.15-5.18-2.15H141.29z M148.62,206.27h131.91v131.91H148.62V206.27z"/>
<path fill="#FFFFFF" d="M214.57,235.58c-12.05,0-21.98,9.92-21.98,21.98c0,12.05,9.94,21.98,21.98,21.98
	c12.05,0,21.98-9.94,21.98-21.98C236.55,245.51,226.62,235.58,214.57,235.58z M214.57,250.24c4.13,0,7.33,3.18,7.33,7.33
	c0,4.12-3.2,7.33-7.33,7.33c-0.97,0.01-1.93-0.17-2.82-0.53c-0.9-0.36-1.71-0.9-2.39-1.59c-0.68-0.68-1.22-1.5-1.59-2.39
	c-0.36-0.89-0.54-1.85-0.53-2.82C207.24,253.42,210.44,250.24,214.57,250.24z"/>
<path fill="#FFFFFF" d="M207.24,270.76v38.11h14.66v-38.11H207.24z"/>
<path fill="#FFFFFF" d="M214.57,118.33c-28.29,0-51.3,23-51.3,51.3v33.56h14.66v-33.56c0-20.43,16.21-36.64,36.64-36.64
	s36.64,16.21,36.64,36.64v33.56h14.66v-33.56C265.87,141.33,242.86,118.33,214.57,118.33z"/>
<g>
	<path fill="#FFFFFF" d="M68.01,235.58c-6.75,0.03-13.44-1.27-19.68-3.84c-6.24-2.57-11.91-6.35-16.68-11.12
		c-4.77-4.77-8.55-10.45-11.11-16.69s-3.87-12.93-3.83-19.68c-0.04-6.74,1.27-13.43,3.83-19.67c2.57-6.24,6.34-11.9,11.11-16.67
		c4.77-4.77,10.44-8.54,16.68-11.1c6.24-2.56,12.92-3.86,19.67-3.82h0.75c1.69,0,3.33-0.58,4.64-1.65s2.21-2.56,2.55-4.21
		c1.34-6.61,4.93-12.56,10.16-16.83c8.02-6.13-1.61-17.97-9.23-11.37c-3.81,3.12-7.14,6.89-9.75,11.14
		c-1.69,2.77-2.54,6.04-3.61,9.19c-34.19,2.43-61.45,30.19-61.45,65c0,17.49,6.95,34.27,19.32,46.64
		c12.37,12.37,29.14,19.33,46.63,19.34h77.75l-0.64-14.66H68.01z"/>
	<path fill="#FFFFFF" d="M104.62,103.68c6.55,0,12.94,2.21,18.09,6.27c1.15,0.91,2.55,1.46,4.01,1.56c1.46,0.11,2.93-0.23,4.2-0.96
		c1.27-0.73,2.29-1.83,2.93-3.16c0.64-1.32,0.87-2.81,0.65-4.26c-0.32-2.25-0.49-4.51-0.51-6.78c0-6.82,1.36-13.57,4-19.86
		c1.3-3.08,2.89-5.98,4.73-8.71c0.77-1.11,1.22-2.41,1.3-3.76c0.08-1.35-0.22-2.69-0.85-3.88c-0.64-1.19-1.59-2.18-2.75-2.86
		c-1.16-0.68-2.49-1.03-3.84-1.01v-0.12c-1.19,0.01-2.37,0.33-3.41,0.91c-1.04,0.58-1.93,1.41-2.57,2.42
		c-4.83,7.13-8.21,15.15-9.94,23.58c-0.73,3.59-0.97,7.33-1.09,11.11c-4.98-1.91-9.51-5.16-14.92-5.16
		C94.74,88.87,94.71,103.79,104.62,103.68z"/>
	<rect x="287.94" y="235.58" fill="#FFFFFF" width="39.52" height="14.66"/>
	<path fill="#FFFFFF" d="M162.22,34.98c-0.91,0.01-1.81,0.21-2.64,0.59c-3.96,1.69-7.68,3.74-11.2,6.11
		c-8.78,5.31-0.03,18.29,8.19,12.14c2.73-1.85,5.67-3.46,8.73-4.75C172.81,45.92,170.35,34.71,162.22,34.98z"/>
	<path fill="#FFFFFF" d="M322.34,19.94c1.73,0.56,3.43,1.19,5.12,1.85V6.26c-10.15-3.37-21.03-4.57-32.31-4.57
		c-1.12,0.01-1.71,0.03-3.2,0.14c-29.72,1-56.94,15.1-75.61,38.14c-9.67-5.29-20.01-9.57-31.09-9.57c-9.91-0.15-9.91,14.8,0,14.66
		c10.26,0.01,20.26,3.09,28.73,8.85c1.58,1.07,3.51,1.48,5.39,1.15c1.88-0.33,3.55-1.38,4.67-2.93
		c10.87-15.08,26.25-26.32,43.91-32.1C285.61,14.25,304.66,14.22,322.34,19.94z"/>
</g>
</svg>
